<svg width="69" height="69" viewBox="0 0 69 69" fill="none" xmlns="http://www.w3.org/2000/svg">
<rect width="69" height="69" rx="10" fill="#FF7979" fill-opacity="0.19"/>
<path d="M45 41.6666V33.3333C45 28.2166 42.2833 23.9333 37.5 22.8V21.6666C37.5 20.2833 36.3833 19.1666 35 19.1666C33.6166 19.1666 32.5 20.2833 32.5 21.6666V22.8C27.7333 23.9333 25 28.2 25 33.3333V41.6666L21.6666 45V46.6666H48.3333V45L45 41.6666ZM41.6666 43.3333H28.3333V33.3333C28.3333 29.2 30.85 25.8333 35 25.8333C39.15 25.8333 41.6666 29.2 41.6666 33.3333V43.3333Z" fill="#FF6767"/>
<path d="M38.3333 48.3334C38.3333 50.1667 36.8333 51.6667 35 51.6667C33.1666 51.6667 31.6666 50.1667 31.6666 48.3334H38.3333Z" fill="#FF6767"/>
</svg>
