<svg width="69" height="69" viewBox="0 0 69 69" fill="none" xmlns="http://www.w3.org/2000/svg">
<rect width="69" height="69" rx="10" fill="#79FFB7" fill-opacity="0.19"/>
<path d="M21.6667 45V43.9166C21.6667 43.35 21.9334 42.8166 22.35 42.5666C25.1667 40.8833 28.3834 40 31.6667 40C31.7167 40 31.75 40 31.8 40.0166C31.9667 38.85 32.3 37.7333 32.7834 36.7166C32.4167 36.6833 32.05 36.6666 31.6667 36.6666C27.6334 36.6666 23.8667 37.7833 20.65 39.7C19.1834 40.5666 18.3334 42.2 18.3334 43.9166V48.3333H33.7667C33.0667 47.3333 32.5167 46.2 32.15 45H21.6667Z" fill="#008C3E"/>
<path d="M31.6667 35C35.35 35 38.3333 32.0166 38.3333 28.3333C38.3333 24.65 35.35 21.6666 31.6667 21.6666C27.9833 21.6666 25 24.65 25 28.3333C25 32.0166 27.9833 35 31.6667 35ZM31.6667 25C33.5 25 35 26.5 35 28.3333C35 30.1666 33.5 31.6666 31.6667 31.6666C29.8333 31.6666 28.3333 30.1666 28.3333 28.3333C28.3333 26.5 29.8333 25 31.6667 25Z" fill="#008C3E"/>
<path d="M49.5833 41.6666C49.5833 41.2999 49.5333 40.9666 49.4833 40.6166L51.3833 38.9333L49.7167 36.0499L47.3 36.8666C46.7667 36.4166 46.1667 36.0666 45.5 35.8166L45 33.3333H41.6667L41.1667 35.8166C40.5 36.0666 39.9 36.4166 39.3667 36.8666L36.95 36.0499L35.2833 38.9333L37.1833 40.6166C37.1333 40.9666 37.0833 41.2999 37.0833 41.6666C37.0833 42.0333 37.1333 42.3666 37.1833 42.7166L35.2833 44.3999L36.95 47.2833L39.3667 46.4666C39.9 46.9166 40.5 47.2666 41.1667 47.5166L41.6667 49.9999H45L45.5 47.5166C46.1667 47.2666 46.7667 46.9166 47.3 46.4666L49.7167 47.2833L51.3833 44.3999L49.4833 42.7166C49.5333 42.3666 49.5833 42.0333 49.5833 41.6666ZM43.3333 44.9999C41.5 44.9999 40 43.4999 40 41.6666C40 39.8333 41.5 38.3333 43.3333 38.3333C45.1667 38.3333 46.6667 39.8333 46.6667 41.6666C46.6667 43.4999 45.1667 44.9999 43.3333 44.9999Z" fill="#008C3E"/>
</svg>
