<svg width="25" height="21" viewBox="0 0 25 21" fill="none" xmlns="http://www.w3.org/2000/svg">
<path d="M12.4999 16.125C9.53702 16.125 7.13859 13.8317 6.91788 10.9254L2.82023 7.75861C2.28156 8.43439 1.78585 9.14884 1.38585 9.93009C1.29649 10.1069 1.24994 10.3021 1.24994 10.5002C1.24994 10.6983 1.29649 10.8936 1.38585 11.0703C3.50421 15.2035 7.69796 18 12.4999 18C13.5511 18 14.5652 17.8438 15.5425 17.5914L13.5155 16.0231C13.1808 16.0877 12.8408 16.1218 12.4999 16.125ZM24.7585 18.3945L20.4402 15.057C21.7519 13.9515 22.8308 12.5962 23.614 11.0699C23.7033 10.8932 23.7499 10.6979 23.7499 10.4998C23.7499 10.3018 23.7033 10.1065 23.614 9.9297C21.4956 5.7965 17.3019 3.00001 12.4999 3.00001C10.4888 3.00245 8.51031 3.50875 6.74523 4.47267L1.7757 0.631652C1.71089 0.581225 1.63679 0.544062 1.55762 0.522286C1.47844 0.500511 1.39576 0.49455 1.31428 0.504743C1.2328 0.514937 1.15413 0.541086 1.08277 0.581695C1.0114 0.622305 0.948736 0.676579 0.898353 0.741417L0.131556 1.72853C0.0298368 1.85938 -0.015743 2.02528 0.00484145 2.18973C0.0254259 2.35419 0.110489 2.50373 0.241322 2.60548L23.2241 20.3684C23.2889 20.4188 23.363 20.456 23.4422 20.4777C23.5214 20.4995 23.6041 20.5055 23.6856 20.4953C23.767 20.4851 23.8457 20.4589 23.9171 20.4183C23.9884 20.3777 24.0511 20.3234 24.1015 20.2586L24.8687 19.2715C24.9703 19.1406 25.0159 18.9747 24.9952 18.8102C24.9745 18.6457 24.8894 18.4962 24.7585 18.3945ZM17.5819 12.8477L16.0468 11.6609C16.1761 11.2873 16.2446 10.8954 16.2499 10.5C16.2575 9.92121 16.1293 9.34868 15.8755 8.82843C15.6217 8.30817 15.2495 7.85468 14.7886 7.50439C14.3278 7.1541 13.7912 6.91677 13.2221 6.81147C12.6529 6.70617 12.0669 6.73582 11.5112 6.89806C11.7468 7.21724 11.8742 7.60332 11.8749 8.00001C11.8691 8.13202 11.8489 8.26299 11.8148 8.39064L8.93937 6.16837C9.93819 5.33369 11.1982 4.87597 12.4999 4.87501C13.2387 4.8746 13.9704 5.01981 14.653 5.30235C15.3356 5.58489 15.9559 5.99921 16.4783 6.52162C17.0007 7.04403 17.415 7.66429 17.6976 8.34693C17.9801 9.02957 18.1253 9.76121 18.1249 10.5C18.1249 11.3449 17.9183 12.1324 17.5819 12.8481V12.8477Z" fill="black" fill-opacity="0.3"/>
</svg>
