<svg width="53" height="53" viewBox="0 0 53 53" fill="none" xmlns="http://www.w3.org/2000/svg">
<path d="M26.5518 0.0551758C12.1022 0.0551758 0.375 11.8475 0.375 26.3774C0.375 40.9073 12.1022 52.6996 26.5518 52.6996C41.0014 52.6996 52.7286 40.9073 52.7286 26.3774C52.7286 11.8475 41.0014 0.0551758 26.5518 0.0551758ZM26.5518 7.95184C30.8971 7.95184 34.4048 11.479 34.4048 15.8485C34.4048 20.218 30.8971 23.7452 26.5518 23.7452C22.2064 23.7452 18.6988 20.218 18.6988 15.8485C18.6988 11.479 22.2064 7.95184 26.5518 7.95184ZM26.5518 45.3294C20.0076 45.3294 14.2225 41.9602 10.8457 36.8536C10.9242 31.6155 21.3164 28.7464 26.5518 28.7464C31.761 28.7464 42.1793 31.6155 42.2579 36.8536C38.8811 41.9602 33.096 45.3294 26.5518 45.3294Z" fill="#C8C8C8"/>
</svg>
