<svg width="21" height="19" viewBox="0 0 21 19" fill="none" xmlns="http://www.w3.org/2000/svg">
<path d="M8.12785 18.3428C7.46003 18.3428 6.82752 18.0882 6.42222 17.6491L0.936873 11.7264C0.767282 11.5435 0.64347 11.3351 0.572515 11.1131C0.501559 10.891 0.484852 10.6597 0.523349 10.4324C0.561845 10.2051 0.65479 9.98623 0.79687 9.78829C0.93895 9.59035 1.12738 9.41723 1.35138 9.27883C1.57531 9.13986 1.8306 9.03837 2.10261 8.98017C2.37463 8.92197 2.65802 8.90821 2.93656 8.93967C3.2151 8.97114 3.4833 9.04722 3.72579 9.16354C3.96827 9.27987 4.18029 9.43415 4.34967 9.61756L7.95898 13.5116L17.0337 1.6036C17.3346 1.21042 17.8141 0.930848 18.367 0.826191C18.9199 0.721534 19.501 0.800342 19.9828 1.04533C20.9853 1.55467 21.2939 2.63357 20.6676 3.45403L9.94556 17.5174C9.76253 17.7585 9.51024 17.9595 9.21061 18.1029C8.91097 18.2463 8.57302 18.3278 8.22611 18.3403C8.19233 18.3428 8.16163 18.3428 8.12785 18.3428Z" fill="#181059"/>
</svg>
