<svg width="828" height="623" viewBox="0 0 828 623" fill="none" xmlns="http://www.w3.org/2000/svg">
<path opacity="0.4" d="M698.826 239.519C709.783 239.519 718.665 230.627 718.665 219.658C718.665 208.688 709.783 199.796 698.826 199.796C687.868 199.796 678.986 208.688 678.986 219.658C678.986 230.627 687.868 239.519 698.826 239.519Z" fill="#6C63FF"/>
<path opacity="0.4" d="M280.518 130.249C296.138 130.249 308.8 117.572 308.8 101.935C308.8 86.2984 296.138 73.6222 280.518 73.6222C264.898 73.6222 252.235 86.2984 252.235 101.935C252.235 117.572 264.898 130.249 280.518 130.249Z" fill="#6C63FF"/>
<path opacity="0.4" d="M228.174 135.32C239.131 135.32 248.014 126.427 248.014 115.458C248.014 104.489 239.131 95.5966 228.174 95.5966C217.217 95.5966 208.334 104.489 208.334 115.458C208.334 126.427 217.217 135.32 228.174 135.32Z" fill="#6C63FF"/>
<path d="M715.442 441.76C699.766 458.942 699.197 483.97 699.197 483.97C699.197 483.97 724.044 481.141 739.72 463.96C755.397 446.779 755.966 421.751 755.966 421.751C755.966 421.751 731.119 424.579 715.442 441.76Z" fill="#3F3D56"/>
<path d="M724.297 446.704C719.554 469.484 699.614 484.593 699.614 484.593C699.614 484.593 687.365 462.767 692.108 439.987C696.852 417.207 716.792 402.099 716.792 402.099C716.792 402.099 729.041 423.924 724.297 446.704Z" fill="#6C63FF"/>
<path d="M703.937 211.644V483.204L613.515 557.982H150.922V273.303L285.899 211.644H703.937Z" fill="#3F3D56"/>
<path opacity="0.1" d="M703.937 211.644V212.732L671.477 234.483L613.515 273.303H150.922L285.899 211.644H703.937Z" fill="black"/>
<path opacity="0.1" d="M703.937 211.644V483.204L613.515 557.982L614.17 272.647L671.477 234.483L703.413 211.644H703.937Z" fill="black"/>
<path d="M582.064 249.032H300.315L321.282 237.225H591.238L582.064 249.032Z" fill="#2F2E41"/>
<path d="M825.234 572.753C825.234 572.753 830.696 595.619 825.73 596.613C820.765 597.607 796.434 597.287 790.475 598.281C784.517 599.275 772.103 597.607 772.103 593.134C772.103 588.66 785.013 585.677 785.013 585.677C785.013 585.677 803.386 575.735 803.882 575.238C804.379 574.741 825.234 572.753 825.234 572.753Z" fill="#2F2E41"/>
<path d="M820.765 438.041C820.765 438.041 819.275 454.942 819.275 456.433C819.275 457.925 820.765 481.288 819.275 482.282C817.786 483.276 820.268 490.236 820.268 492.721C820.268 495.207 828.213 536.465 826.227 552.372C824.241 568.279 829.206 566.788 827.717 568.279C826.227 569.77 826.227 569.77 826.227 572.753C826.227 575.735 810.337 578.221 810.337 578.221L792.958 468.364L801.896 435.556L820.765 438.041Z" fill="#575A89"/>
<path opacity="0.1" d="M820.765 438.041C820.765 438.041 819.275 454.942 819.275 456.433C819.275 457.925 820.765 481.288 819.275 482.282C817.786 483.276 820.268 490.236 820.268 492.721C820.268 495.207 828.213 536.465 826.227 552.372C824.241 568.279 829.206 566.788 827.717 568.279C826.227 569.77 826.227 569.77 826.227 572.753C826.227 575.735 810.337 578.221 810.337 578.221L792.958 468.364L801.896 435.556L820.765 438.041Z" fill="black"/>
<path d="M818.282 579.712C818.282 579.712 823.248 597.607 818.282 598.602C813.317 599.596 788.986 597.463 783.027 598.457C777.068 599.451 764.655 599.596 764.655 595.122C764.655 590.648 777.565 587.666 777.565 587.666C777.565 587.666 795.937 577.724 796.434 577.227C796.93 576.73 818.282 579.712 818.282 579.712Z" fill="#2F2E41"/>
<path d="M825.234 418.157C825.234 418.157 831.193 432.573 824.241 440.029C817.289 447.486 809.344 462.399 809.344 463.393C809.344 464.387 823.248 563.308 821.262 569.77C819.275 576.232 819.772 580.209 820.269 581.203C820.765 582.198 815.303 587.666 809.344 587.666C803.386 587.666 794.448 583.192 793.455 579.215C792.462 575.238 794.944 540.939 794.448 534.477C793.951 528.015 791.468 518.57 790.475 516.581C789.482 514.593 784.02 512.605 783.027 506.64C782.034 500.675 774.089 424.62 776.572 422.134C779.055 419.649 825.234 418.157 825.234 418.157Z" fill="#575A89"/>
<path d="M787.496 303.826C796.82 303.826 804.379 296.259 804.379 286.925C804.379 277.591 796.82 270.024 787.496 270.024C778.172 270.024 770.613 277.591 770.613 286.925C770.613 296.259 778.172 303.826 787.496 303.826Z" fill="#FFB9B9"/>
<path d="M797.923 295.376C797.923 295.376 794.447 313.768 796.93 315.757C799.413 317.745 778.061 320.727 778.061 320.727C778.061 320.727 775.579 296.37 775.082 293.885C774.585 291.399 797.923 295.376 797.923 295.376Z" fill="#FFB9B9"/>
<path d="M775.082 319.236C775.082 319.236 781.041 301.838 805.372 306.809C805.372 306.809 809.841 308.3 808.351 309.791C806.861 311.283 805.372 311.283 807.358 312.774C809.344 314.265 811.827 312.774 810.337 314.265C808.847 315.756 823.744 324.704 822.751 341.605C821.758 358.506 826.227 382.367 822.751 386.343C819.275 390.32 825.234 407.718 824.241 411.198C823.247 414.678 830.199 419.152 827.22 420.643C824.241 422.134 770.613 431.082 769.123 420.643C767.634 410.204 768.627 417.66 767.137 415.175C765.648 412.689 765.151 408.216 766.144 402.748C767.137 397.28 769.62 383.858 768.627 378.887C767.634 373.916 768.627 332.161 771.606 327.19C774.585 322.219 775.082 319.236 775.082 319.236Z" fill="#258E53"/>
<path d="M785.51 440.527C785.51 440.527 792.958 468.861 783.524 468.861C774.089 468.861 774.586 439.532 774.586 439.532L785.51 440.527Z" fill="#FFB9B9"/>
<path d="M780.048 286.925C780.048 288.367 782.133 289.281 785.366 289.49H785.371C786.741 289.568 788.116 289.542 789.482 289.411C791.548 289.222 792.402 291.165 792.754 293.73C793.33 297.961 792.526 303.891 793.455 304.82C794.736 306.103 804.076 304.816 806.995 301.908C807.45 301.5 807.753 300.949 807.855 300.347C808.161 298.571 809.036 296.943 810.347 295.709C812.07 293.825 814.523 291.737 817.289 288.416C822.255 282.451 817.289 281.954 815.799 277.48C814.31 273.007 811.827 271.515 811.827 268.533C811.827 265.55 800.406 263.065 790.972 263.562C781.537 264.059 783.523 275.989 783.523 275.989C783.523 275.989 782.962 277.431 782.292 279.29C781.385 281.623 780.648 284.018 780.087 286.458C780.064 286.613 780.051 286.769 780.048 286.925Z" fill="#2F2E41"/>
<path opacity="0.1" d="M782.034 326.693C782.034 326.693 798.916 325.698 800.406 350.553C801.896 375.408 801.399 398.771 801.399 399.268C801.399 399.765 794.448 446.989 787.992 446.989C781.537 446.989 776.572 445.995 775.082 443.509C773.592 441.024 779.055 405.233 779.055 405.233C779.055 405.233 781.537 367.454 777.565 355.524C773.592 343.594 773.096 328.184 782.034 326.693Z" fill="#002510"/>
<path d="M779.551 324.207C779.551 324.207 796.434 323.213 797.923 348.068C799.413 372.922 798.916 396.285 798.916 396.783C798.916 397.28 791.965 444.503 785.51 444.503C779.054 444.503 774.089 443.509 772.599 441.024C771.11 438.538 776.572 402.748 776.572 402.748C776.572 402.748 779.054 364.969 775.082 353.038C771.11 341.108 770.613 325.698 779.551 324.207Z" fill="#258E53"/>
<path d="M499.598 81.2225C499.598 81.2225 492.241 60.3533 486.927 66.9005C481.613 73.4477 495.102 84.4961 495.102 84.4961L499.598 81.2225Z" fill="#A0616A"/>
<path d="M534.342 60.7625L529.916 62.4047C529.916 62.4047 527.802 71.8109 528.62 73.4477C529.437 75.0845 529.846 73.8569 528.62 77.1305C527.393 80.4041 523.715 88.9973 523.306 90.2249C522.897 91.4525 499.598 82.4501 499.598 77.9489C499.598 77.9489 494.693 83.6777 492.24 84.9053C492.24 84.9053 519.218 104.547 522.897 107.002C526.576 109.457 528.62 108.23 531.89 105.365C535.16 102.501 549.057 78.7673 549.057 78.7673L534.342 60.7625Z" fill="#575A89"/>
<path d="M522.488 206.028C522.488 206.028 522.897 210.53 523.714 210.939C524.532 211.348 530.663 221.578 523.714 223.624C516.766 225.67 512.678 224.852 511.043 225.67C509.408 226.488 480.795 228.125 480.387 223.624C479.978 219.123 494.284 218.304 494.284 218.304C494.284 218.304 507.364 209.711 509.408 205.21C511.452 200.709 522.488 206.028 522.488 206.028Z" fill="#2F2E41"/>
<path d="M605.465 214.212C605.465 214.212 615.276 230.99 612.823 233.036C610.371 235.082 586.486 242.538 582.984 242.856C578.488 243.266 575.218 239.583 578.896 237.537C582.575 235.491 590.342 226.898 590.342 224.033V216.668L605.465 214.212Z" fill="#2F2E41"/>
<path d="M614.867 104.547C614.867 104.547 623.451 115.186 609.962 132.372L587.48 161.016C587.48 161.016 601.378 183.113 601.787 194.571C602.196 206.028 605.057 203.573 605.874 208.484C606.692 213.394 610.371 210.939 607.509 214.622C604.648 218.304 594.02 221.578 590.75 218.714C589.625 217.684 588.747 216.413 588.181 214.996C587.615 213.579 587.375 212.052 587.48 210.53C587.48 208.893 581.758 199.481 581.349 196.617C580.94 193.752 565.816 170.428 565.816 170.428C565.816 170.428 560.911 156.515 566.634 148.74C572.356 140.966 576.138 129.939 576.138 129.939C576.138 129.939 559.276 150.377 547.422 155.288C547.422 155.288 542.926 156.106 543.743 158.152C544.561 160.198 543.744 161.426 542.517 163.472C541.291 165.518 532.707 189.251 529.846 195.389C526.985 201.527 528.211 205.21 524.941 207.256C521.671 209.302 506.956 207.665 506.956 205.619C506.956 203.573 508.999 198.254 510.226 195.389C511.452 192.525 521.262 159.38 520.444 153.651C519.627 147.922 520.853 140.147 526.985 136.874C533.116 133.6 564.181 107.002 565.816 107.002C567.451 107.002 614.867 104.547 614.867 104.547Z" fill="#2F2E41"/>
<path d="M532.707 40.3026C542.189 40.3026 549.875 32.6079 549.875 23.1162C549.875 13.6244 542.189 5.92978 532.707 5.92978C523.226 5.92978 515.54 13.6244 515.54 23.1162C515.54 32.6079 523.226 40.3026 532.707 40.3026Z" fill="#A0616A"/>
<path d="M546.605 24.753C546.605 24.753 551.919 34.1646 558.459 35.3922C564.999 36.6198 541.291 55.443 541.291 55.443C541.291 55.443 535.568 37.4382 530.663 36.6198C525.758 35.8014 546.605 24.753 546.605 24.753Z" fill="#A0616A"/>
<path d="M529.846 63.2177C529.846 68.5373 545.787 83.6777 545.787 83.6777L560.911 96.3629C560.911 96.3629 561.32 100.864 562.955 101.273C564.59 101.682 566.634 101.682 564.999 104.138C563.364 106.593 559.276 111.912 562.955 112.731C564.064 112.9 565.182 113.006 566.303 113.05C567.284 113.107 568.436 113.16 569.732 113.21C572.757 113.316 576.542 113.386 580.642 113.357C581.807 113.353 582.992 113.339 584.198 113.316C599.653 113.009 617.557 111.229 616.093 105.365C613.641 95.5445 615.276 92.2709 609.962 86.9513C604.648 81.6317 596.064 63.2177 596.064 63.2177C596.064 63.2177 578.897 34.1645 564.59 34.1645L561.618 33.3829C560.238 33.0188 558.777 33.0987 557.444 33.6113C556.112 34.1239 554.974 35.0432 554.191 36.2392C551.322 40.6135 546.797 47.1853 544.152 49.3049C540.065 52.5785 539.427 50.2297 539.427 50.2297C539.427 50.2297 529.846 57.8981 529.846 63.2177Z" fill="#575A89"/>
<path d="M566.225 125.416C566.225 125.416 554.371 143.83 561.729 147.104C569.086 150.377 573.174 127.871 573.174 127.871L566.225 125.416Z" fill="#A0616A"/>
<path d="M543.931 21.1749C543.272 21.0917 543.063 20.2594 542.952 19.604C542.358 16.0937 539.745 12.7651 536.234 12.1984C534.892 12.0197 533.528 12.1298 532.232 12.5214C530.375 13.0314 528.632 13.8902 527.096 15.0521C526.344 15.7399 525.475 16.2864 524.529 16.6654C523.885 16.8548 521.15 18.0722 520.511 18.2782C519.106 18.731 517.943 20.2033 516.496 19.9118C515.111 19.6329 514.586 17.9593 514.363 16.5632C513.856 13.3825 515.675 8.63675 517.483 5.97259C518.855 3.95087 521.177 2.78735 523.498 2.0304C526.218 1.20395 529.012 0.648077 531.841 0.370853C535.66 -0.0806214 539.615 -0.320153 543.274 0.86148C546.934 2.04311 550.266 4.93365 550.949 8.72175C551.091 9.51084 551.118 10.3191 551.292 11.1017C551.718 13.0109 552.98 14.6157 553.716 16.4276C554.247 17.7584 554.493 19.1858 554.439 20.6178C554.386 22.0499 554.033 23.4547 553.403 24.7417C552.384 26.7937 550.611 28.7656 550.994 31.025L547.84 28.5351C547.384 28.2758 547.031 27.8679 546.839 27.3794C546.647 26.8909 546.629 26.3513 546.787 25.8508L547.245 21.8969C547.404 21.1806 547.332 20.4323 547.041 19.7592C545.639 17.3075 545.029 21.3137 543.931 21.1749Z" fill="#2F2E41"/>
<path opacity="0.1" d="M573.583 97.1813L569.732 113.21C573.616 113.349 578.753 113.422 584.198 113.316C585.572 109.191 586.884 104.891 587.889 100.864C591.568 86.1329 585.437 63.6269 582.167 52.9877C578.897 42.3485 570.722 39.4841 570.722 39.4841C567.37 40.6641 564.204 42.3176 561.32 44.3945C556.006 48.0773 573.583 97.1813 573.583 97.1813Z" fill="black"/>
<path opacity="0.1" d="M570.313 96.3629L566.303 113.05C567.284 113.107 568.436 113.161 569.732 113.21C572.757 113.316 576.542 113.386 580.642 113.357C582.117 108.974 583.544 104.35 584.619 100.046C588.298 85.3145 582.167 62.8085 578.897 52.1693C575.627 41.5301 568.473 53.1923 568.473 53.1923C568.473 53.1923 571.335 46.2359 566.021 49.9187C560.707 53.6015 570.313 96.3629 570.313 96.3629Z" fill="black"/>
<path d="M569.086 38.6658C569.086 38.6658 577.261 41.5301 580.531 52.1693C583.801 62.8085 589.933 85.3145 586.254 100.046C582.575 114.777 574.809 133.191 574.809 133.191C574.809 133.191 567.043 127.462 564.181 128.69L571.948 96.3629C571.948 96.3629 554.371 47.259 559.685 43.5761C562.569 41.4992 565.735 39.8457 569.086 38.6658Z" fill="#575A89"/>
<path d="M575.18 243.917L462.09 7.9989L272.996 98.8401L342.54 243.917H575.18Z" fill="#F2F2F2"/>
<path d="M423.821 100.602L323.386 148.851L326.378 155.092L426.812 106.843L423.821 100.602Z" fill="#3F3D56"/>
<path d="M450.412 156.075L349.978 204.324L352.969 210.564L453.404 162.315L450.412 156.075Z" fill="#3F3D56"/>
<path d="M468.678 67.9625L443.743 79.9415L455.709 104.904L480.644 92.9251L468.678 67.9625Z" fill="#3F3D56"/>
<path d="M495.269 123.435L470.334 135.414L482.3 160.377L507.236 148.398L495.269 123.435Z" fill="#3F3D56"/>
<path d="M470.396 50.6718L460.127 79.922L446.284 75.0509L444.389 80.4466L463.604 87.2069L475.785 52.5682L470.396 50.6718Z" fill="#57B894"/>
<path d="M496.987 106.144L486.718 135.394L472.875 130.524L470.981 135.919L490.195 142.679L502.377 108.04L496.987 106.144Z" fill="#57B894"/>
<path d="M10.914 515.444L62.0068 504.518L51.093 453.369L0.000103632 464.295L10.914 515.444Z" fill="#F2F2F2"/>
<path d="M60.5857 439.703C60.5857 439.703 41.8192 453.122 48.0747 458.49C54.3302 463.858 66.8413 442.387 66.8413 442.387L60.5857 439.703Z" fill="#FFB9B9"/>
<path d="M147.269 460.279C147.269 460.279 143.695 505.01 142.801 511.272C141.908 517.535 141.014 573.896 139.227 580.158C137.439 586.42 135.652 601.629 135.652 601.629H124.928C124.928 601.629 125.822 573.896 123.141 563.16C120.46 552.425 121.354 522.902 121.354 522.902C121.354 522.902 115.992 470.12 118.673 462.963C121.354 455.806 147.269 460.279 147.269 460.279Z" fill="#FFB9B9"/>
<path d="M132.971 598.945C132.971 598.945 137.439 601.629 137.439 603.418C137.439 605.207 136.545 609.68 137.439 611.469C138.333 613.259 144.588 620.416 141.014 622.205C137.439 623.994 121.354 622.205 121.354 622.205C121.354 622.205 122.247 609.68 123.141 608.785C124.034 607.891 122.247 598.945 122.247 598.945H132.971Z" fill="#2F2E41"/>
<path d="M78.9552 459.183C78.9552 459.183 77.82 504.042 78.052 510.364C78.2841 516.686 73.2633 572.829 74.3841 579.245C75.5049 585.66 75.6877 600.972 75.6877 600.972L86.3522 602.099C86.3522 602.099 88.3713 574.425 92.1631 564.031C95.9548 553.637 98.1616 524.183 98.1616 524.183C98.1616 524.183 109.028 472.256 107.112 464.857C105.197 457.458 78.9552 459.183 78.9552 459.183Z" fill="#FFB9B9"/>
<path d="M78.6354 598.585C78.6354 598.585 73.9104 600.784 73.7228 602.564C73.5352 604.343 73.9549 608.885 72.8786 610.571C71.8023 612.256 64.8309 618.716 68.1982 620.871C71.5654 623.026 87.7497 622.937 87.7497 622.937C87.7497 622.937 88.1742 610.388 87.3793 609.404C86.5845 608.421 89.2999 599.712 89.2999 599.712L78.6354 598.585Z" fill="#2F2E41"/>
<path d="M134.758 393.183C134.758 393.183 141.907 394.078 144.588 409.286C147.269 424.495 157.099 462.963 149.057 465.647C141.014 468.331 116.885 473.699 115.992 471.909C115.098 470.12 113.311 465.647 113.311 465.647C113.311 465.647 115.992 473.699 112.417 473.699C108.843 473.699 73.9904 468.331 74.8841 465.647C75.7777 462.963 77.565 443.282 77.565 443.282C77.565 443.282 82.9268 410.181 88.2887 404.813C89.8405 403.322 91.0452 401.507 91.8175 399.497C92.5897 397.487 92.9104 395.331 92.7569 393.183H134.758Z" fill="#2F2E41"/>
<path d="M148.163 386.026C148.163 386.026 136.546 383.342 134.758 386.921C132.971 390.499 139.226 395.867 141.907 395.867C144.588 395.867 149.057 393.183 149.057 393.183L148.163 386.026Z" fill="#FFB9B9"/>
<path d="M124.035 309.984C132.918 309.984 140.12 302.774 140.12 293.881C140.12 284.987 132.918 277.778 124.035 277.778C115.151 277.778 107.949 284.987 107.949 293.881C107.949 302.774 115.151 309.984 124.035 309.984Z" fill="#FFB9B9"/>
<path d="M121.354 305.511C121.354 305.511 118.673 318.035 120.46 318.035C122.247 318.035 107.055 326.087 107.055 326.087L95.4379 324.298L91.8633 318.93C91.8633 318.93 110.63 306.405 110.63 299.248C110.63 292.092 121.354 305.511 121.354 305.511Z" fill="#FFB9B9"/>
<path d="M113.311 318.035C113.311 318.035 115.992 316.246 116.885 316.246H124.035C124.928 316.246 136.546 318.93 136.546 318.93L143.695 359.188C143.695 359.188 131.184 379.764 140.12 395.867C140.12 395.867 137.439 394.078 124.928 394.972C112.417 395.867 90.0761 398.551 89.1825 398.551C88.2888 398.551 88.2888 391.394 89.1825 389.605C90.0761 387.815 88.2889 388.71 88.2889 384.237C88.2889 379.764 85.6079 371.712 85.6079 371.712L73.0969 326.087C73.0969 326.087 89.1825 317.141 91.8635 318.035C94.5444 318.93 102.587 321.614 104.374 320.719C106.162 319.825 113.311 318.035 113.311 318.035Z" fill="#6C63FF"/>
<path d="M133.865 319.825L136.546 318.93C136.546 318.93 141.908 318.035 148.163 323.403C154.419 328.771 177.653 344.874 177.653 344.874C177.653 344.874 186.59 352.031 183.909 360.082C181.228 368.134 176.76 387.815 163.355 386.921C163.355 386.921 155.312 397.656 150.844 395.867C146.376 394.078 142.801 386.921 145.482 386.026C148.163 385.132 155.312 376.185 155.312 376.185L146.376 359.188H143.695L133.865 353.82L133.865 319.825Z" fill="#6C63FF"/>
<path d="M80.2459 325.192L73.0967 326.087C73.0967 326.087 66.8412 328.771 67.7349 340.401C68.6285 352.031 62.373 404.813 65.0539 411.075C65.0539 411.075 56.1175 441.492 57.9048 442.387C59.6921 443.282 70.4158 448.649 69.5222 445.071C68.6285 441.492 79.3523 416.443 79.3523 416.443C79.3523 416.443 91.8633 403.024 86.5014 384.237V369.028L80.2459 325.192Z" fill="#6C63FF"/>
<path d="M137.422 309.45L126.061 311.927L124.601 306.327L125.163 312.123L106.836 316.12L106.03 313.029L106.34 316.228L94.6013 318.788L92.0902 294.658C89.5086 284.756 98.9305 274.202 108.822 271.617L113.21 270.471C120.475 268.573 133.68 270.299 135.576 277.571C132.257 290.251 126.6 304.152 137.422 309.45Z" fill="#2F2E41"/>
</svg>
