<svg width="21" height="19" viewBox="0 0 21 19" fill="none" xmlns="http://www.w3.org/2000/svg">
<path d="M8.12773 18.3428C7.45991 18.3428 6.8274 18.0882 6.4221 17.6491L0.936751 11.7264C0.76716 11.5435 0.643348 11.3351 0.572393 11.1131C0.501437 10.891 0.48473 10.6597 0.523227 10.4324C0.561723 10.2051 0.654668 9.98623 0.796748 9.78829C0.938828 9.59035 1.12726 9.41723 1.35126 9.27883C1.57519 9.13986 1.83047 9.03837 2.10249 8.98017C2.3745 8.92197 2.6579 8.90821 2.93644 8.93967C3.21497 8.97114 3.48317 9.04722 3.72566 9.16354C3.96815 9.27987 4.18017 9.43415 4.34955 9.61756L7.95886 13.5116L17.0336 1.6036C17.3345 1.21042 17.814 0.930848 18.3669 0.826191C18.9198 0.721534 19.5009 0.800342 19.9827 1.04533C20.9852 1.55467 21.2938 2.63357 20.6674 3.45403L9.94544 17.5174C9.7624 17.7585 9.51012 17.9595 9.21048 18.1029C8.91084 18.2463 8.5729 18.3278 8.22599 18.3403C8.19221 18.3428 8.16151 18.3428 8.12773 18.3428Z" fill="white"/>
</svg>
